# xmcd
#
# Track frame offsets:
#	150
#	15130
#	30770
#	46830
#	63420
#	77170
#	88650
#	106225
#	121575
#	133030
#	147600
#	157890
#	174660
#	188615
#	200445
#	216205
#	231880
#
# Disc length: 3242 seconds
#
# Revision: 1
# Processed by: cddbd v1.5.1PL0 Copyright (c) Steve Scherf et al.
# Submitted via: audiograbber 1.82.02
#
DISCID=d30ca811
DTITLE=Johnny Ashcroft - Requests
DYEAR=1900
DGENRE=Country
TTITLE0=Me And Bobby McGee
TTITLE1=There Goes My Everything
TTITLE2=Jody And The Kids
TTITLE3=Help Me Make It Through The Night
TTITLE4=Four In The Morning
TTITLE5=Running Bear
TTITLE6=Old Shep
TTITLE7=First Day Or Never
TTITLE8=Reuben James
TTITLE9=Daddy Hard Heart
TTITLE10=Six Days On The Road
TTITLE11=Two Little Boys
TTITLE12=My Elusive Dreams
TTITLE13=Never Ending Song Of Love
TTITLE14=Stockman's Last Ride
TTITLE15=Little Boy Lost
TTITLE16=Playground On My Mind
EXTD=
EXTT0=
EXTT1=
EXTT2=
EXTT3=
EXTT4=
EXTT5=
EXTT6=
EXTT7=
EXTT8=
EXTT9=
EXTT10=
EXTT11=
EXTT12=
EXTT13=
EXTT14=
EXTT15=
EXTT16=
PLAYORDER=
